#N canvas 0 0 1522 779 12;
#X obj 40 71 loadbang;
#X obj 40 122 tgl 19 0 empty empty empty 0 -10 0 12 #fcfcfc #000000
#000000 1 1;
#X msg 40 178 \; pd dsp \$1;
#X text 38 37 打開聲音, f 8;
#X text 267 485 另開視窗選擇檔案, f 14;
#X text 258 436 檔案要放桌面才讀的到, f 17;
#X obj 184 486 openpanel;
#X msg 184 530 open \$1;
#X obj 184 736 dac~;
#X msg 125 524 1;
#X msg 73 523 start;
#X msg 65 568 0;
#X obj 269 727 bng 19 250 50 0 empty empty empty 0 -10 0 12 #fcfcfc
#000000 #000000;
#X msg 13 592 stop;
#X obj 184 637 readsf~ 2;
#X obj 184 689 *~;
#X obj 219 690 *~;
#X floatatom 280 654 5 0 0 0 - - -, f 5;
#X text 270 528 固定這個聲音檔案, f 14;
#X text 332 652 調整音量, f 8;
#X obj 184 433 bng 19 250 50 0 empty empty empty 0 -10 0 12 #fcfcfc
#000000 #000000;
#X obj 242 351 dac~;
#X obj 289 166 bng 19 250 50 0 empty empty empty 0 -10 0 12 #fcfcfc
#000000 #000000;
#X obj 242 303 *~;
#X msg 172 71 0;
#X obj 243 133 readsf~;
#X obj 334 119 hsl 162 19 0 127 0 0 empty empty volume -2 -10 0 12
#fcfcfc #000000 #000000 0 1;
#X floatatom 332 183 5 0 0 0 - - -, f 5;
#X text 178 29 滑軌調整音量, f 11;
#X obj 332 213 pack 0 50;
#X obj 332 249 line~;
#X obj 332 154 / 30;
#X obj 577 126 soundfiler;
#X obj 579 314 phasor~;
#X obj 579 354 *~;
#X floatatom 577 176 10 0 0 0 - - -, f 10;
#X obj 582 397 tabread4~ soundData;
#X obj 585 506 dac~;
#N canvas 0 50 450 250 (subpatch) 0;
#X array soundData 1.3085e+06 float 4 black black;
#X coords 0 1 1.3085e+06 -1 200 140 1;
#X restore 1140 614 graph;
#X obj 577 221 expr 44100/$f1;
#X msg 515 237 0;
#X obj 643 266 hsl 162 19 0.02 0.06 0 0 empty empty frequency -2 -10
0 12 #fcfcfc #000000 #000000 0 1;
#X floatatom 668 308 5 0 0 0 - - -, f 5;
#X text 575 28 滑軌調整大調, f 11;
#X obj 1351 131 soundfiler;
#X obj 1358 441 phasor~;
#X obj 1359 499 *~;
#X floatatom 1351 181 10 0 0 0 - - -, f 10;
#X obj 1362 543 tabread4~ soundData;
#X obj 1368 682 dac~;
#X obj 1351 226 expr 44100/$f1;
#X msg 1289 242 0;
#X obj 1424 390 hsl 162 19 0.03 0.06 0 0 empty empty frequency -2 -10
0 12 #fcfcfc #000000 #000000 5500 1;
#X floatatom 1450 433 5 0 0 0 - - -, f 5;
#X obj 702 680 *~;
#X obj 700 736 dac~;
#X obj 702 641 *~;
#X obj 744 510 hsl 80 19 0 127 0 0 empty empty frequency -2 -10 0 12
#fcfcfc #000000 #000000 0 1;
#X floatatom 741 556 5 0 0 0 - - -, f 5;
#X obj 741 600 osc~;
#X floatatom 751 656 5 0 5 0 - - -, f 5;
#X obj 665 515 adc~;
#X obj 664 584 *~;
#X floatatom 693 553 5 0 0 0 - - -, f 5;
#X obj 1522 439 hsl 162 19 0 127 0 0 empty empty volume -2 -10 0 12
#fcfcfc #000000 #000000 13250 1;
#X floatatom 1518 507 5 0 0 0 - - -, f 5;
#X obj 1518 537 pack 0 50;
#X obj 1518 573 line~;
#X obj 1518 478 / 30;
#X obj 1366 619 *~;
#X obj 1425 272 hsl 162 19 0.8 3.5 0 0 empty empty speed -2 -10 0 12
#fcfcfc #000000 #000000 10000 1;
#X obj 1421 300 t b f;
#X floatatom 1420 332 5 0 0 0 - - -, f 5;
#X obj 1389 357 *;
#X text 1102 34 v=f*λ;
#X obj 941 132 soundfiler;
#X obj 946 397 phasor~;
#X obj 945 442 *~;
#X floatatom 941 182 10 0 0 0 - - -, f 10;
#X obj 945 478 tabread4~ soundData;
#X obj 945 521 dac~;
#X obj 941 227 expr 44100/$f1;
#X msg 879 243 0;
#X obj 1012 271 hsl 162 19 0.8 3.75 0 0 empty empty speed -2 -10 0
12 #fcfcfc #000000 #000000 0 1;
#X obj 1011 301 t b f;
#X floatatom 1010 333 5 0 0 0 - - -, f 5;
#X obj 979 358 *;
#X text 1353 37 滑軌調整大調、音量和速度, f 21;
#X text 928 30 滑軌調整速度, f 10;
#X obj 1364 654 hip~ 5;
#X msg 941 81 read -resize sea.wav soundData;
#X msg 577 75 read -resize sea.wav soundData;
#X msg 244 79 open sea.wav \, 1;
#X msg 1351 80 read- resize sea.wav soundData;
#X connect 0 0 1 0;
#X connect 1 0 2 0;
#X connect 6 0 7 0;
#X connect 7 0 14 0;
#X connect 9 0 14 0;
#X connect 10 0 14 0;
#X connect 11 0 14 0;
#X connect 13 0 14 0;
#X connect 14 0 15 0;
#X connect 14 1 16 0;
#X connect 14 2 12 0;
#X connect 15 0 8 0;
#X connect 16 0 8 1;
#X connect 17 0 15 1;
#X connect 17 0 16 1;
#X connect 20 0 6 0;
#X connect 23 0 21 0;
#X connect 23 0 21 1;
#X connect 24 0 25 0;
#X connect 25 0 23 0;
#X connect 25 1 22 0;
#X connect 26 0 31 0;
#X connect 27 0 29 0;
#X connect 29 0 30 0;
#X connect 30 0 23 1;
#X connect 31 0 27 0;
#X connect 32 0 35 0;
#X connect 33 0 34 0;
#X connect 34 0 36 0;
#X connect 35 0 39 0;
#X connect 35 0 34 1;
#X connect 36 0 37 0;
#X connect 36 0 37 1;
#X connect 39 0 33 0;
#X connect 40 0 33 0;
#X connect 41 0 42 0;
#X connect 41 0 33 0;
#X connect 44 0 47 0;
#X connect 45 0 46 0;
#X connect 46 0 48 0;
#X connect 47 0 50 0;
#X connect 47 0 46 1;
#X connect 48 0 69 0;
#X connect 50 0 45 0;
#X connect 50 0 72 0;
#X connect 51 0 45 0;
#X connect 52 0 53 0;
#X connect 52 0 45 0;
#X connect 54 0 55 0;
#X connect 54 0 55 1;
#X connect 56 0 54 0;
#X connect 57 0 58 0;
#X connect 58 0 59 0;
#X connect 59 0 56 1;
#X connect 60 0 54 1;
#X connect 61 0 62 0;
#X connect 62 0 56 0;
#X connect 63 0 62 1;
#X connect 64 0 68 0;
#X connect 65 0 66 0;
#X connect 66 0 67 0;
#X connect 67 0 69 1;
#X connect 68 0 65 0;
#X connect 69 0 89 0;
#X connect 70 0 71 0;
#X connect 71 0 72 0;
#X connect 71 1 73 1;
#X connect 72 0 73 0;
#X connect 73 0 45 0;
#X connect 75 0 78 0;
#X connect 76 0 77 0;
#X connect 77 0 79 0;
#X connect 78 0 81 0;
#X connect 78 0 77 1;
#X connect 79 0 80 0;
#X connect 79 0 80 1;
#X connect 81 0 76 0;
#X connect 81 0 85 0;
#X connect 82 0 76 0;
#X connect 83 0 84 0;
#X connect 84 0 85 0;
#X connect 84 1 86 1;
#X connect 85 0 86 0;
#X connect 86 0 76 0;
#X connect 89 0 49 0;
#X connect 89 0 49 1;
#X connect 90 0 75 0;
#X connect 91 0 32 0;
#X connect 92 0 25 0;
#X connect 93 0 44 0;
