#N canvas 0 25 829 768 12;
#N canvas 0 50 450 250 (subpatch) 0;
#X array soundData 4.19619e+06 float 4;
#X coords 0 1 4.19619e+06 -1 200 140 1;
#X restore 67 271 graph;
#X obj 286 150 soundfiler;
#X obj 287 456 phasor~;
#X obj 287 500 *~;
#X floatatom 286 173 10 0 0 0 - - - 0;
#X obj 287 527 tabread4~ soundData;
#X obj 287 646 dac~;
#X obj 286 196 expr 44100/$f1;
#X msg 403 378 0, f 1;
#X obj 287 597 *~;
#X obj 367 277 t b f;
#X floatatom 367 311 5 0 0 0 - - - 0;
#X obj 367 333 *;
#X obj 287 621 hip~ 5;
#X obj 367 456 phasor~;
#X obj 366 500 *~;
#X msg 286 102 read -resize sea.wav soundData;
#X obj 464 195 / 100;
#X obj 464 218 * 1.2;
#X obj 464 242 + 0.05;
#X obj 464 375 / 100;
#X obj 464 398 * 0.015;
#X obj 464 421 + 0.025;
#X text 462 316 freq;
#X text 462 138 speed;
#X text 521 398 (offset);
#X text 507 218 (offset);
#X obj 464 456 print freq;
#X obj 464 277 print speed;
#X obj 463 559 / 100;
#X text 520 582 (offset);
#X text 461 500 volume;
#X obj 463 582 * 3.5;
#X obj 463 605 + 0;
#X obj 464 161 netreceive -b 9001;
#X obj 464 339 netreceive -b 9002;
#X obj 463 523 netreceive -b 9003;
#X text 620 88 filename;
#X obj 621 139 print filename;
#X obj 463 640 print volume;
#X obj 621 109 netreceive -b 9000;
#X obj 621 169 sel 1 2 3 4 5 6 7 8 9 10;
#X connect 1 0 4 0;
#X connect 2 0 3 0;
#X connect 3 0 5 0;
#X connect 4 0 7 0;
#X connect 4 0 3 1;
#X connect 4 0 15 1;
#X connect 5 0 9 0;
#X connect 7 0 2 0;
#X connect 7 0 11 0;
#X connect 7 0 14 0;
#X connect 8 0 2 0;
#X connect 8 0 14 0;
#X connect 9 0 13 0;
#X connect 10 0 11 0;
#X connect 10 1 12 1;
#X connect 11 0 12 0;
#X connect 12 0 2 0;
#X connect 13 0 6 0;
#X connect 13 0 6 1;
#X connect 14 0 15 0;
#X connect 15 0 5 0;
#X connect 16 0 1 0;
#X connect 17 0 18 0;
#X connect 18 0 19 0;
#X connect 19 0 28 0;
#X connect 19 0 10 0;
#X connect 20 0 21 0;
#X connect 21 0 22 0;
#X connect 22 0 27 0;
#X connect 22 0 14 0;
#X connect 29 0 32 0;
#X connect 32 0 33 0;
#X connect 33 0 9 1;
#X connect 33 0 39 0;
#X connect 34 0 17 0;
#X connect 35 0 20 0;
#X connect 36 0 29 0;
#X connect 40 0 38 0;
