#N canvas 0 25 829 768 12;
#N canvas 0 50 450 250 (subpatch) 0;
#X array soundData 4.19619e+06 float 4;
#X coords 0 1 4.19619e+06 -1 200 140 1;
#X restore 76 508 graph;
#X obj 338 142 soundfiler;
#X obj 336 442 phasor~;
#X obj 336 486 *~;
#X floatatom 338 165 10 0 0 0 - - - 0;
#X obj 336 512 tabread4~ soundData;
#X obj 336 628 dac~;
#X obj 338 187 expr 44100/$f1;
#X obj 336 579 *~;
#X obj 416 224 t b f;
#X floatatom 416 248 5 0 0 0 - - - 0;
#X obj 416 271 *;
#X obj 336 603 hip~ 5;
#X obj 416 442 phasor~;
#X obj 416 486 *~;
#X obj 621 177 / 100;
#X obj 621 200 * 1.2;
#X obj 621 223 + 0.05;
#X obj 620 362 / 100;
#X obj 620 385 * 0.015;
#X obj 620 408 + 0.025;
#X text 571 304 freq;
#X text 572 119 speed;
#X text 677 385 (offset);
#X text 664 200 (offset);
#X obj 619 547 / 100;
#X text 676 570 (offset);
#X text 571 489 volume;
#X obj 619 570 * 3.5;
#X obj 619 593 + 0;
#X obj 573 628 print volume;
#X text 74 123 track;
#X msg 76 208 read -resize sea.wav soundData;
#X obj 76 166 route 1 2 3;
#X msg 76 276 read -resize city.wav soundData;
#X msg 76 344 read -resize forest.wav soundData;
#X text 174 231 (track 1);
#X text 181 299 (track 2);
#X text 195 367 (track 3);
#X obj 76 231 print sea.wav;
#X obj 76 299 print city.wav;
#X obj 76 367 print forest.wav;
#X obj 76 143 netreceive -b 9000;
#X obj 574 142 netreceive -b 9001;
#X obj 573 325 netreceive -b 9002;
#X obj 573 511 netreceive -b 9003;
#X obj 416 325 netreceive -b 9004;
#X text 414 303 pause;
#X obj 416 348 route 0 1;
#X obj 416 371 0;
#X floatatom 574 177 5 0 0 0 - - - 0;
#X floatatom 573 362 5 0 0 0 - - - 0;
#X floatatom 573 548 5 0 0 0 - - - 0;
#X obj 441 399 print pause;
#X obj 574 258 print bpm;
#X obj 573 442 print pitch;
#X connect 1 0 4 0;
#X connect 2 0 3 0;
#X connect 3 0 5 0;
#X connect 4 0 7 0;
#X connect 4 0 3 1;
#X connect 4 0 14 1;
#X connect 5 0 8 0;
#X connect 7 0 2 0;
#X connect 7 0 10 0;
#X connect 7 0 13 0;
#X connect 8 0 12 0;
#X connect 9 0 10 0;
#X connect 9 1 11 1;
#X connect 10 0 11 0;
#X connect 11 0 2 0;
#X connect 12 0 6 0;
#X connect 12 0 6 1;
#X connect 13 0 14 0;
#X connect 14 0 5 0;
#X connect 15 0 16 0;
#X connect 16 0 17 0;
#X connect 17 0 9 0;
#X connect 17 0 54 0;
#X connect 18 0 19 0;
#X connect 19 0 20 0;
#X connect 20 0 13 0;
#X connect 20 0 55 0;
#X connect 25 0 28 0;
#X connect 28 0 29 0;
#X connect 29 0 8 1;
#X connect 29 0 30 0;
#X connect 32 0 1 0;
#X connect 33 0 32 0;
#X connect 33 0 39 0;
#X connect 33 1 34 0;
#X connect 33 1 40 0;
#X connect 33 2 35 0;
#X connect 33 2 41 0;
#X connect 33 3 32 0;
#X connect 33 3 39 0;
#X connect 34 0 1 0;
#X connect 35 0 1 0;
#X connect 42 0 33 0;
#X connect 43 0 50 0;
#X connect 44 0 51 0;
#X connect 45 0 52 0;
#X connect 46 0 48 0;
#X connect 46 0 53 0;
#X connect 48 0 49 0;
#X connect 48 1 51 0;
#X connect 48 1 50 0;
#X connect 48 2 49 0;
#X connect 49 0 2 0;
#X connect 49 0 13 0;
#X connect 50 0 15 0;
#X connect 51 0 18 0;
#X connect 52 0 25 0;
