#N canvas 0 25 829 768 12;
#N canvas 0 50 450 250 (subpatch) 0;
#X array soundData 4.19619e+06 float 4;
#X coords 0 1 4.19619e+06 -1 200 140 1;
#X restore 73 428 graph;
#X obj 368 184 soundfiler;
#X obj 366 445 phasor~;
#X obj 366 489 *~;
#X floatatom 368 207 10 0 0 0 - - - 0;
#X obj 366 516 tabread4~ soundData;
#X obj 366 635 dac~;
#X obj 368 229 expr 44100/$f1;
#X msg 482 367 0, f 1;
#X obj 366 586 *~;
#X obj 448 274 t b f;
#X floatatom 448 298 5 0 0 0 - - - 0;
#X obj 448 321 *;
#X obj 366 610 hip~ 5;
#X obj 446 445 phasor~;
#X obj 445 489 *~;
#X obj 571 185 / 100;
#X obj 571 208 * 1.2;
#X obj 571 231 + 0.05;
#X obj 571 365 / 100;
#X obj 571 388 * 0.015;
#X obj 571 411 + 0.025;
#X text 569 306 freq;
#X text 569 128 speed;
#X text 628 388 (offset);
#X text 614 208 (offset);
#X obj 571 446 print freq;
#X obj 571 267 print speed;
#X obj 570 552 / 100;
#X text 627 575 (offset);
#X text 568 493 volume;
#X obj 570 575 * 3.5;
#X obj 570 598 + 0;
#X obj 570 633 print volume;
#X text 72 127 track;
#X msg 74 212 read -resize sea.wav soundData;
#X obj 74 170 route 1 2 3;
#X msg 74 280 read -resize city.wav soundData;
#X msg 74 348 read -resize forest.wav soundData;
#X text 172 235 (track 1);
#X text 179 303 (track 2);
#X text 193 371 (track 3);
#X obj 74 235 print sea.wav;
#X obj 74 303 print city.wav;
#X obj 74 371 print forest.wav;
#X obj 74 147 netreceive -b 9000;
#X obj 571 151 netreceive -b 9001;
#X obj 571 329 netreceive -b 9002;
#X obj 570 516 netreceive -b 9003;
#X connect 1 0 4 0;
#X connect 2 0 3 0;
#X connect 3 0 5 0;
#X connect 4 0 7 0;
#X connect 4 0 3 1;
#X connect 4 0 15 1;
#X connect 5 0 9 0;
#X connect 7 0 2 0;
#X connect 7 0 11 0;
#X connect 7 0 14 0;
#X connect 8 0 2 0;
#X connect 8 0 14 0;
#X connect 9 0 13 0;
#X connect 10 0 11 0;
#X connect 10 1 12 1;
#X connect 11 0 12 0;
#X connect 12 0 2 0;
#X connect 13 0 6 0;
#X connect 13 0 6 1;
#X connect 14 0 15 0;
#X connect 15 0 5 0;
#X connect 16 0 17 0;
#X connect 17 0 18 0;
#X connect 18 0 27 0;
#X connect 18 0 10 0;
#X connect 19 0 20 0;
#X connect 20 0 21 0;
#X connect 21 0 26 0;
#X connect 21 0 14 0;
#X connect 28 0 31 0;
#X connect 31 0 32 0;
#X connect 32 0 9 1;
#X connect 32 0 33 0;
#X connect 35 0 1 0;
#X connect 36 0 35 0;
#X connect 36 0 42 0;
#X connect 36 1 37 0;
#X connect 36 1 43 0;
#X connect 36 2 38 0;
#X connect 36 2 44 0;
#X connect 36 3 35 0;
#X connect 36 3 42 0;
#X connect 37 0 1 0;
#X connect 38 0 1 0;
#X connect 45 0 36 0;
#X connect 46 0 16 0;
#X connect 47 0 19 0;
#X connect 48 0 28 0;
