#N canvas 1890 364 1920 966 12;
#N canvas 0 50 450 250 (subpatch) 0;
#X array soundData 1.92762e+06 float 4;
#X coords 0 1 1.92762e+06 -1 200 140 1;
#X restore 37 652 graph;
#X obj 248 169 soundfiler;
#X obj 255 479 phasor~;
#X obj 262 693 *~;
#X floatatom 248 219 10 0 0 0 - - - 0;
#X obj 261 750 tabread4~ soundData;
#X obj 260 920 dac~;
#X obj 248 264 expr 44100/$f1;
#X msg 750 328 0;
#X obj 620 282 hsl 162 19 0.025 0.04 0 0 empty empty frequency -2 -10 0 12 #ffe3c6 #000000 #000000 0 1;
#X floatatom 490 489 5 0 0 0 - - - 0;
#X floatatom 390 814 5 0 0 0 - - - 0;
#X obj 264 859 *~;
#X obj 621 220 hsl 162 19 0.05 1.25 0 0 empty empty speed -2 -10 0 12 #ffc7c6 #000000 #000000 0 1;
#X obj 318 338 t b f;
#X floatatom 317 370 5 0 0 0 - - - 0;
#X obj 286 395 *;
#X obj 262 894 hip~ 5;
#X obj 404 486 phasor~;
#X floatatom 472 331 5 0 0 0 - - - 0;
#X obj 340 693 *~;
#X text 884 101 1 按這個開啟音樂, f 15;
#X text 805 282 3 音樂大調調整, f 13;
#X text 805 331 4 按這個停止播放, f 15;
#X text 614 54 讀取要的音檔 read -resize 檔案名稱.wav soundata, f 48;
#X text 615 20 操作參數區, f 9;
#X msg 616 104 read -resize sea.wav soundData;
#X obj 621 165 hsl 162 19 1 3.5 0 0 empty empty volume -2 -10 0 12 #c7c6ff #000000 #000000 0 1;
#X text 804 163 2 聲音要開一下確認有沒有成功播音樂, f 30;
#X text 804 222 3 音樂速度調整, f 13;
#X connect 1 0 4 0;
#X connect 2 0 3 0;
#X connect 3 0 5 0;
#X connect 4 0 7 0;
#X connect 4 0 3 1;
#X connect 4 0 20 1;
#X connect 5 0 12 0;
#X connect 7 0 2 0;
#X connect 7 0 15 0;
#X connect 7 0 18 0;
#X connect 8 0 2 0;
#X connect 8 0 18 0;
#X connect 9 0 10 0;
#X connect 9 0 18 0;
#X connect 11 0 12 1;
#X connect 12 0 17 0;
#X connect 13 0 14 0;
#X connect 13 0 19 0;
#X connect 14 0 15 0;
#X connect 14 1 16 1;
#X connect 15 0 16 0;
#X connect 16 0 2 0;
#X connect 17 0 6 0;
#X connect 17 0 6 1;
#X connect 18 0 20 0;
#X connect 20 0 5 0;
#X connect 26 0 1 0;
#X connect 27 0 11 0;
